<?xml version="1.0" encoding="utf-8"?>
<!-- Generator: Adobe Illustrator 26.1.0, SVG Export Plug-In . SVG Version: 6.00 Build 0)  -->
<svg version="1.1" id="katman_1" xmlns="http://www.w3.org/2000/svg" xmlns:xlink="http://www.w3.org/1999/xlink" x="0px" y="0px"
	 viewBox="0 0 39.7 39.7" style="enable-background:new 0 0 39.7 39.7;" xml:space="preserve">
<style type="text/css">
	.st0{fill-rule:evenodd;clip-rule:evenodd;fill:#60852D;}
</style>
<g>
	<g>
		<path class="st0" d="M6.5,1.3c0,0,1.3,2.3-0.9,13.1c0,0-1.9,9.7,2,13.8c0,0,0.7-5.1,7-9.5c0,0-1.3-7.2-3.6-11.6
			c0,0,4.2,4.6,4.7,10.5c0,0,1.9-1.1,4.9-1.7C20.6,15.8,19.8,8,6.5,1.3"/>
		<path class="st0" d="M8.2,36c0,0-3.5-23.4,26.4-18.7c0,0-3.3,2.6-6.4,9.8S17.3,40.9,9.3,37.3c0,0,6.9-13.4,18.2-17.8
			C27.5,19.5,16.8,19.9,8.2,36"/>
	</g>
</g>
</svg>
