<svg id="Layer_1" data-name="Layer 1" xmlns="http://www.w3.org/2000/svg" viewBox="0 0 253.75 318.2"><defs><style>.cls-1,.cls-2{fill:#608425;}.cls-1{fill-rule:evenodd;}.cls-2{font-size:27px;font-family:BankGothicBT-Medium, BankGothic Md BT;font-weight:500;}.cls-3{letter-spacing:-0.12em;}</style></defs><path class="cls-1" d="M38.84,0s9.75,16.5-6.75,95.25c0,0-13.5,70.5,14.25,100.5,0,0,5.25-37.5,51-69,0,0-9.75-52.5-26.25-84.75,0,0,30.75,33.75,34.5,76.5,0,0,13.5-8.25,36-12.75,0,0-5.25-57-102.75-105.75"/><path class="cls-1" d="M51.13,252.75S25.63,82.5,243.88,116.25c0,0-24,18.75-46.5,71.25s-79.5,101.25-138,75c0,0,50-97.5,132.75-129.75,0,0-78,2.25-141,120"/><text class="cls-2" transform="translate(0 300.82)">GREEN MED <tspan class="cls-3" x="198.12" y="0">L</tspan><tspan x="213.36" y="0">TD</tspan></text></svg>