<?xml version="1.0" encoding="utf-8"?>
<!-- Generator: Adobe Illustrator 26.1.0, SVG Export Plug-In . SVG Version: 6.00 Build 0)  -->
<svg version="1.1" id="katman_1" xmlns="http://www.w3.org/2000/svg" xmlns:xlink="http://www.w3.org/1999/xlink" x="0px" y="0px"
	 viewBox="0 0 24 24" style="enable-background:new 0 0 24 24;" xml:space="preserve">
<style type="text/css">
	.st0{fill:none;stroke:#000000;stroke-width:1.7792;stroke-miterlimit:10;}
	.st1{fill:none;stroke:#000000;stroke-width:1.7792;stroke-linecap:round;stroke-miterlimit:10;}
</style>
<path class="st0" d="M17,6.7L12,1.5L17,6.7z"/>
<path class="st1" d="M17,18.9l0,0.9c0,1.3-1,2.3-2.3,2.3H3.8c-1.3,0-2.3-1-2.3-2.3V3.9c0-1.3,1-2.3,2.3-2.3h8c0.1,0,0.2,0,0.3,0.1
	l4.7,5C16.9,6.7,17,6.8,17,6.9l0,5.3"/>
<path class="st0" d="M12,1.5v4.4c0,0.5,0.4,0.8,0.8,0.8l4.1,0"/>
<line class="st1" x1="5.1" y1="7.8" x2="8.5" y2="7.8"/>
<line class="st1" x1="5.1" y1="15.3" x2="8.5" y2="15.3"/>
<line class="st1" x1="5.1" y1="11.5" x2="12" y2="11.5"/>
<g>
	<line class="st1" x1="21.4" y1="15.8" x2="14.5" y2="15.8"/>
	<line class="st1" x1="22.7" y1="15.8" x2="19.7" y2="17.5"/>
	<line class="st1" x1="22.7" y1="15.8" x2="19.7" y2="14"/>
</g>
</svg>
